<?xml version="1.0" standalone="no"?>
<!DOCTYPE svg PUBLIC "-//W3C//DTD SVG 20010904//EN"
 "http://www.w3.org/TR/2001/REC-SVG-20010904/DTD/svg10.dtd">
<svg version="1.0" xmlns="http://www.w3.org/2000/svg"
 width="1024.000000pt" height="360.000000pt" viewBox="0 0 1024.000000 360.000000"
 preserveAspectRatio="xMidYMid meet">

<g transform="translate(0.000000,360.000000) scale(0.100000,-0.100000)"
fill="#000000" stroke="none">
<path d="M0 2590 l0 -1010 288 0 287 0 -55 32 c-345 197 -418 867 -130 1180
73 79 144 122 244 148 185 47 361 6 478 -111 27 -27 50 -49 51 -49 1 0 1 135
1 300 l-2 300 219 0 219 0 0 -900 0 -900 256 0 256 0 -83 42 c-65 32 -102 60
-165 122 -129 130 -185 271 -190 481 -3 140 14 224 71 340 88 184 255 315 475
377 27 7 102 12 185 12 124 -1 149 -4 220 -27 297 -98 470 -363 470 -722 l0
-60 -493 -3 -493 -2 7 -48 c15 -99 71 -185 148 -224 29 -16 66 -23 128 -26 76
-4 92 -2 140 21 56 26 87 51 114 92 l16 25 205 0 204 0 -6 -22 c-39 -134 -163
-277 -295 -341 l-75 -37 233 0 232 0 0 900 0 900 220 0 220 0 0 -230 0 -230
115 0 115 0 0 230 0 230 220 0 220 0 0 -230 0 -230 135 0 136 0 -3 -142 -3
-143 -132 0 -133 0 0 -332 0 -333 29 -32 c29 -33 30 -33 135 -36 l106 -4 0
-159 0 -159 35 0 35 0 0 670 0 670 220 0 220 0 0 -670 0 -670 253 0 252 1 -79
41 c-148 78 -266 222 -323 393 -24 71 -27 96 -27 225 -1 165 10 221 71 347 53
109 186 243 293 295 117 57 186 72 330 73 149 0 203 -12 328 -71 196 -94 334
-279 372 -500 16 -88 8 -256 -14 -339 -52 -190 -176 -343 -350 -430 l-69 -35
254 2 254 3 2 650 c1 358 2 658 2 668 1 16 18 17 211 17 l210 0 0 -90 0 -90
63 63 c129 132 314 184 510 142 131 -28 228 -98 282 -206 51 -100 55 -143 55
-671 l0 -488 144 0 144 0 5 63 c2 34 5 488 6 1010 l1 947 -4115 0 -4115 0 0
-1010z m5050 635 l0 -155 -220 0 -220 0 0 155 0 155 220 0 220 0 0 -155z"/>
<path d="M2305 2647 c-98 -38 -162 -116 -189 -229 l-6 -28 274 0 273 0 -8 45
c-5 24 -17 62 -28 83 -26 51 -100 115 -149 130 -49 15 -127 14 -167 -1z"/>
<path d="M3604 2631 c-2 -2 -4 -240 -4 -528 l0 -523 238 0 237 1 -47 18 c-94
37 -140 87 -174 192 -16 47 -19 107 -23 449 l-6 395 -108 0 c-60 0 -110 -2
-113 -4z"/>
<path d="M826 2605 c-132 -47 -201 -235 -165 -455 27 -173 123 -274 259 -273
167 2 260 134 260 373 0 180 -63 310 -173 358 -37 16 -132 15 -181 -3z"/>
<path d="M5725 2601 c-54 -24 -108 -86 -136 -157 -20 -51 -23 -77 -24 -189 0
-149 15 -211 70 -286 44 -61 105 -91 186 -91 105 0 172 41 218 133 42 84 54
156 48 274 -8 160 -66 273 -161 316 -54 24 -148 24 -201 0z"/>
<path d="M7235 2595 c-5 -2 -23 -6 -38 -9 -46 -11 -114 -81 -137 -142 -19 -52
-20 -77 -20 -459 l0 -405 225 0 226 0 -3 443 c-3 487 -2 475 -67 530 -39 32
-144 56 -186 42z"/>
<path d="M1115 1666 c-33 -34 -69 -66 -80 -73 -17 -10 -5 -12 65 -10 l85 2 3
73 c2 39 -1 71 -5 71 -4 -1 -35 -29 -68 -63z"/>
</g>
</svg>
