<?xml version="1.0" standalone="no"?>
<!DOCTYPE svg PUBLIC "-//W3C//DTD SVG 20010904//EN"
 "http://www.w3.org/TR/2001/REC-SVG-20010904/DTD/svg10.dtd">
<svg version="1.0" xmlns="http://www.w3.org/2000/svg"
 width="512.000000pt" height="512.000000pt" viewBox="0 0 512.000000 512.000000"
 preserveAspectRatio="xMidYMid meet">
<metadata>
Created by potrace 1.16, written by Peter Selinger 2001-2019
</metadata>
<g transform="translate(0.000000,512.000000) scale(0.100000,-0.100000)"
fill="#000000" stroke="none">
<path d="M2474 4782 c-71 -25 -149 -77 -188 -126 -146 -180 -136 -427 23 -587
210 -209 560 -151 692 116 33 68 34 73 34 190 0 109 -3 125 -27 178 -38 80
-123 167 -206 208 -61 30 -76 34 -172 36 -82 3 -116 -1 -156 -15z"/>
<path d="M2233 3889 c-24 -4 -63 -17 -88 -28 -39 -17 -719 -468 -811 -538 -57
-43 -80 -108 -164 -478 -44 -192 -80 -370 -80 -395 1 -205 267 -284 394 -117
22 28 39 92 97 343 38 170 72 316 75 325 5 16 112 94 120 87 2 -2 -1 -31 -6
-64 -14 -90 -38 -372 -45 -529 -3 -77 -17 -337 -31 -579 l-25 -438 -105 -477
c-118 -533 -121 -561 -71 -637 93 -139 315 -118 380 34 9 21 65 262 126 537
l109 500 12 245 c7 135 13 246 15 248 2 2 136 -143 298 -324 l36 -41 26 -512
c19 -396 28 -520 40 -549 62 -147 258 -178 363 -57 63 71 62 53 27 752 -19
373 -29 508 -40 539 -11 29 -79 111 -215 260 l-199 219 -1 424 c0 233 2 422 4
420 2 -2 42 -92 89 -199 116 -268 95 -250 432 -385 149 -59 273 -111 276 -114
4 -3 3 -31 -1 -61 -17 -126 23 -245 112 -332 46 -44 53 -48 99 -48 42 0 55 5
80 29 24 24 29 38 29 78 0 41 -5 54 -35 88 -43 49 -59 95 -52 148 20 147 221
178 286 43 21 -42 21 -52 21 -1010 l0 -968 29 -28 c51 -52 111 -52 163 0 l28
29 -2 1008 -3 1008 -28 57 c-61 125 -177 202 -320 214 -78 7 -78 7 -98 45 -10
21 -34 50 -52 65 -19 15 -141 70 -272 123 l-238 96 -156 360 c-86 198 -164
374 -173 390 -27 51 -110 125 -173 155 -93 46 -185 59 -282 39z"/>
</g>
</svg>
