<svg xmlns="http://www.w3.org/2000/svg" viewBox="0 0 793.7 376.29"><defs><style>.cls-1,.cls-3{fill:#1d1d1b;}.cls-1{fill-rule:evenodd;}.cls-2{fill:#fff;}</style></defs><title>Asset 2</title><g id="Layer_2" data-name="Layer 2"><g id="Laag_1" data-name="Laag 1"><path class="cls-1" d="M709,165.09c1.35-.5,1.6-2.1,2.31-3.24-2-2.42-6-3.56-6-6.93,0-6.71,10.67-5.87,16.19-5.09,1,1.9,2.21,3.66,3.23,5.55-1.26,4.12-5,5.79-10.62,5.55-2,3,1,5.44-1.39,8.31-9.15-3.19-17.72-5.61-25.43-8.31,1.42,12.15,6.48,24.64,8.79,37.43,7.77,5.61,14.91,11.11,17.1,21.26a7,7,0,0,0,1.4,5.54c.25,10-2.49,16.91-8.34,22.64,7.52.36,14.93,3.38,21.73,1.86,1.36,0,1.71,1.06,2.31,1.84,7.93-1,13.71,4.65,20.79,7.39a12.77,12.77,0,0,0,3.69,4.16c6.91-3.43,18.17.66,23.12,6.48,1.69,11.49-6.84,14.89-14.79,15.25-2.22,2.36.1,7.38-.93,10.17,9,1.95,23.57-1.51,31.43,1.38.18,32.76.3,50.13-.47,79.49-30.17,1.14-64.78-1.4-98.43.47-56-.33-112.77-1.48-169.13,0-1,0-1.24-.81-2.32-.93-2.9-.34-6.47.87-9.24.93-5.56.11-11-.84-16.63-.47-7.44.49-17.78.19-24.5.47-3.6.13-8.87-1.4-13.41-.93-12.85,1.33-33.22-.11-51.75,0-8,.05-18.92.09-27.27,0-1.18,0-2.59,1-3.7.93-7.09-.65-23.24.43-35.12-1.4-1.07.95-2.88,1.08-5.54.93a374.69,374.69,0,0,0-45.3,0c-24-.08-48.94-1.53-73.48-1.38-2.14,0-3.62.77-5.54.45-2.15-.34-5.32-.64-8.79-.92-8.36-.66-15.55,1.57-23.57.92-.45,0-1.24-.94-1.84-.92-1.72,0-3.38,1.31-5.09,1.39-3,.12-6.13-1-9.24-.92-26.37.68-54.92.26-82.26,1.38-7.14-2.57-17.43-.3-27.72-.46-17.56-.28-36.89-.55-52.23-.47C-1.14,346,1,325.75.07,295.41,17,293.09,33.21,295,47.69,294c1-3.86-.09-8.39,0-11.55-.36-1-2.6-.18-3.71-.46a36.09,36.09,0,0,0-9.7-5.55c-6.33-12.09,5.57-20.62,17.09-20.8-1.41-3.78-6.6-3.43-9.24-4.16a10.64,10.64,0,0,0-6-2.77,10,10,0,0,0-5.56-4.16c-3-6.1-8.41-9.76-9.23-18a66.9,66.9,0,0,0-13.87,0c0-5.54,4-9,3.7-13.4,2.05.2.61-3.09,2.77-2.78,8.19-23.36,17.68-50,28.19-71.17-.8-2.36,1-3.58,1.38-6,14.89-.15,26-.24,42.07.47,1.82,3.53,1.32,12.66,3.69,15.71-.58,8.3,3.47,16.16,3.24,25.41,3.75,12.89,5.17,30.72,7.86,42.06,2.11-.13,2.22-.5,4.14,0,2.76,7,.59,19,1.4,25.87A44.07,44.07,0,0,1,117.46,245c5.3,1.7,13.12,1,15.71,4.63,1.07-2.14,2.5,1.74,4.62,0,6.09,5.93,17.5,6.54,24,12,10.28-.91,24.49.51,34.21-.46,6.5,2.43,14.45,1.29,21.72,1.38,2.46,0,4.68,1.21,6.93,1.39,9.08.76,18-2.07,26.33,1.4,7.5-1.49,14.44.25,21.27-.93,5.42,2.25,13.14,1.43,17.56.46v1.38c13.32-.23,32.29.71,45.28,1.38,3.1-5.23,6-10.67,11.1-13.85a93.15,93.15,0,0,1-7.85-7.4c-4.53,2.73-6.77,7.71-10.63,11.09-15.93-1.2-33.27-.69-49-1.85-.41-2.34.17-3.44,0-6.47-11.27-7.74-21.52-19.9-24.48-37.43,3.73-10.75,6.06-22.89,13.4-30,.31-2.62-.84-3.78-.93-6,4.59-.3,4.4,5.36,5.55,8.32,2.9,7.46,5.89,15.63,9.23,23.56-.07,2.09.24,3.78,1.87,4.16-.27,1-1.4.9-.47,1.85,3.45,11.73,8.39,20.21,11.09,33.27-3.94,2.57-7.33,1.61-11.56.92-1.34.82-1.59,2.74-1.39,5.09,6.51.25,14.06-1.28,20.81-.46,1.24.15,2.38,1.16,3.7,1.39,2.68.44,8.05-.43,12.47,0,3,.29,5.34,1.71,8.32.45,4.12-1.73,4.88-6.85,9.24-8.77a43.57,43.57,0,0,0-6-4.64c-5.46,6.46-19.19,7-19.88-6-2-.69-3.83.2-5.09-.47-9.4-10.75,1.63-28.14,13.41-27.26,1.09,2,4,3,3.7,5.08,2.19-1.26,4.76-3.87,7.4-3.23.78-8.9.5-15.88,3.22-24-2.24-5.45-5.44-9.95-7.39-15.71-5.23,3.11-15.34,5.35-15.72-3.69-10.2-8-22.35-16.45-23.1-32.35-4.88-7.21-6.92-15.33-5.09-24,1.69-8,8-12.92,14.33-16.64.4-4.23,2.36-6.88,2.31-11.55C305,64.38,311.05,46.57,325,36.61c.41-1.43,1.55-2.15,1.85-3.7,4-1.37,5.75-5,8.78-7.4,4,0,6.12-3.81,9.24-3.22,11.24-8.88,30.06-6.15,40.67,1.38.81,1.36,1.37,2.95,2.78,3.7,7.25-5.9,11.2-12.53,21.26-14.33a2,2,0,0,0,.92-1.84c12.27,4.53,7.87,19,4.62,29.12,4.82.48,8.32,1.74,8.32,6,2.79,1.37,5.27,3,8.78,3.69,3-1.79,5.67-3.88,8.78-5.55,1.25-11.64,3.39-17.46,5.09-29.57-4.9-2.71-4.45-8.49-1.86-13.41,7.19-4.14,14.93.77,12.95,10.18-2.31,1.44-4.63,4.09-6.95,4.16-3.38,8.69-5,21.42-7.38,31C452.54,38,461,28,470.52,19c-2.8-4-1.51-9.87.47-13.86,1.34,0,3.9-.14,5.09-1.38C478.41,5.43,480,5,483,6.11c3.19,5.7,2.42,14-4.63,14.79-1.78.19-3.1-1.29-5.54-.47-9.42,10-19.53,19.31-28.66,29.58a19.7,19.7,0,0,1,2.31,7.4c3.53-2.53,5.45,0,9.71.92,3.35-3.42,6.16-7.39,12-8.32,3,4.74-1.18,10.09-4.17,12.94,2.59,3.68,4.81,7.68,4.62,13,3.78,3.14,7.57,6.3,11.56,9.23,2.34-.71,4-1.38,6-1.38,1.23-.32.89,1,1.39,1.38,21.62-.66,29.39,16.51,36,32.35.53,9,.52,17.27.93,25-.75,3.21-2.69,7.12-3.7,11.09-.64,2.5-1.86,4-3.24,6.94-1.17,2.52-1.4,5.69-2.31,6.92s-2.56,1.23-3.69,2.32c-2.86,2.72-4.65,8.61-9.24,8.31a1.27,1.27,0,0,1-.93,1.39,9.85,9.85,0,0,0,.47,4.16c-1.76,1.78-1.1,6-3.24,7.4-.62,14.68-11.1,23.36-20.34,30.95.4,3-1.59,3.66-.94,6.94,7.64,2.87,14.32,5.08,23.12,8.33.27-1.43,1.95-1.46,1.86-3.25-1.34-1.41-3.91-4.21-6.48-1.85-2.31-.92-3.4-3.06-5.08-4.61,2.62-5.1,7-8.43,8.78-14.33H501c7.52-12.82,17-23.72,24-37,4.68-1.81,4.43-10.94,10.16-10.16,1.11,1.55-1.33,2.75-1.84,4.15,1.36,9.26,8.06,23.94,5.08,35.12-1,3.57-4.53,5-5.08,8.78-3.73,2.13-5.76,6-8.32,9.24-4,1.3-7.15,3.34-9.24,6.48-3.4-.86-5.23,4.43-9.25,2.77-3.86,3.74-4.78,17.47-1.39,22.65,4.51.66,9.5-1.34,13.86-3.25,1,.45,1.29,1.5,1.86,2.31-3.88,2-4.92,8.21-9.24,8.32s-7.51-5.92-11.56-7.85c-.23-5.61.66-9.55-.46-14.32-7.61-3.8-14.27-5.51-22.65-8.33-1.7,4.09-1.26,8.68-1.85,12.94-.32,2.33-2,4.22-1.38,6.47s2.4,2.06,4.62,4.16c1,.92,1.12,2.79,1.85,3.23.58.36,1.27-.93,1.85-.45,1.9,1.58,6.08,6.84,6.46,9.7,6.86.16,9.85-.31,15.72,0,.53-.07.4-.85.46-1.38,4,1.07,7.7-.6,9.71.91,7.62-2.85,16.1,1.21,23.57-.45,1.06-.24,2.1-1.75,3.23-1.84,1-.1,2.58.86,3.7.91,1.45.06,2.44-.8,4.16-.91,2.8-.2,6.24.92,8.77.91,1.19,0,2.56-.93,3.71-.91s2.5,1.09,3.68.91c1.46-.21,3.41-1.31,6,0a12.51,12.51,0,0,0,3.22-1.84c8.09.95,18.25.14,30.51.46,1.24.31.89-1,1.39-1.39,9.83,1.62,26.39.77,35.58.46,7.58-.25,14.92,2.89,17.09-4.62,3.18,0,4-3,6-2.77-7-5-12.5-10-16.17-18.95.12-2.28.2-4.5-1.39-5.08,1.16-4.55,0-7.19.47-10.64.86-6.47,6.18-10.19,7.4-15.24,1.31-5.55-2.69-11.55-.47-18.48-1.17-2.09-2.11-4.12-1.39-6.95,0-1.39-2.33-.44-2.31-1.84-1-1.73,2.18-2.25,0-2.31.69-1.08,1.12-.7,2.31-.46-2.15-12.58-2.28-23.9-2.78-39.28,7.91-.54,23.21-.68,30.51-.47,2.6,5.2,2.44,11.27,3.7,16.64C686.87,161.6,702.12,160.17,709,165.09ZM445.58,11.2c2.47-.93,3.06,1.53,6.47.91.86-.82,1.22-2.16,2.77-2.3V6.11C450.75,1.47,442.47,5,445.58,11.2ZM471,12.57a9.64,9.64,0,0,0,7.4,5.55c.09-2,.81-.83,2.31-.92a8.24,8.24,0,0,1,1.85-3.7C481.31,6.69,472.59,4.71,471,12.57Zm-68.86,7.86c-4.12,2.72-9.6,7-11.54,9.25a41.24,41.24,0,0,1,9.7,17.56c3.34.66,3.88,2.08,7.4,1.85a80.06,80.06,0,0,0,6-16.18,65.22,65.22,0,0,0,1.85-14.79C412.1,12.39,405.56,18.18,402.13,20.43Zm-42.51,0c-1.94,1.58-5.79.86-8.78,1.86-.93.31-1.74,1.41-2.77,1.84-4.4,1.83-10.06,3.3-12.95,5.55-1,.75-1.37,2.4-2.3,3.23-.49.44-1.27.05-1.85.47C327.55,35.83,324,41,322.2,44c-1.54,2.54-5.05,4.38-6.94,6.93s-3.07,5.92-4.63,8.78c-1.73,3.21-4.18,6.29-5.07,8.32-.35.77.69,1.1.46,1.85-1.19,3.9-3.77,4.81-.93,8.31-.61,3.28-1.53,7.71,1.39,9.24,2-13.93,13.72-25.52,24.49-33.73,4.3-.51,9.25-4.28,15.25-4.62,2.44-2.54,9.53-1.42,12.94-4.16,5.06,1.3,8.45-2,13.86,0,3.75-6,9.18-10.24,13.41-15.71C380,23.53,371.29,19.64,359.62,20.43Zm18.49,24c8-.31,12.06,1.54,18,1.4-.77-4-1-5.84-3.7-7.4,0-3.41-2.6-4.18-3.69-6.48C385.09,36,380.75,39.42,378.11,44.46Zm36,1.4c-.41,2.26,1.53,2.17.93,4.61,3-.32,3-.91,6-1.38-.24-2.29-.19-2.46-.47-4.16-2.37.83-1.41-1.66-2.77-1.85A14,14,0,0,0,414.15,45.86Zm-49.44,15.7C360.39,64.65,355.91,70,355,75c2.77.45,1.79-2.82,4.16-2.76h3.23c4.23,6,15.55,4.24,22.19,6.93.42,3,3.21,3.57,4.62,5.54,3-6.09,9.86-12.49,11.09-19.86.77-4.6-2.1-8.9-2.31-13.87-6.93-3.11-17.82-2.37-24-3.24C372,53.41,366,55.14,364.71,61.56Zm-12.94-12c-3.23.35-5.8,4.2-9.24,2.78-1.15,1.9-5,2.64-6.94,2.31-2.58,2-6.15,4.31-8.32,6.46s-7.24,3.95-6.47,6.47c-2.77,1.23-3.48,4.53-6,6,0,4.8-6.17,8.84-5.56,14.33,3.21-.4,4.38-2.32,6.48-.93a2.52,2.52,0,0,1,1.85-1.85c7.06.37,15.19-1.14,25.88-.46,4.71-6.22,9.7-12.16,12.94-19.86,4.32-1.54,4.5-7.21,8.32-9.25,0-4.06,4.33-3.68,4.61-7.39C363.74,49.1,356.46,49,351.77,49.55Zm68.39,3.7c2.81,1.21,8,4.84,9.24,0C427.15,50.51,421.54,48.67,420.16,53.25Zm15.26-.92c.54.68.39,2.06,1.84,1.85S438.74,52,438.65,50C437,50.2,435.7,50.77,435.42,52.33Zm-33.29,7.85c3-1.2,2.82-5.51,4.16-8.32-2.05.14-2.23-1-5.08-.92C400.36,55.28,402.74,57.46,402.13,60.18Zm4.16.92c2.42,2.53,5.58,4.29,6.47,8.32,3.21-1.44,5.07-3,8.33-5.08.48-4.33-2.6-5.1-3.24-8.32-3.28,0-4.75-2.9-7.86-3.24C408.76,55.57,407.4,58.2,406.29,61.1ZM440,59.26c1.71-.3,2.27-2,4.15-.93.6-2.76-1.33-3-1.38-5.08h-1.4C441.46,55.6,439.42,57.82,440,59.26Zm19.87.92c.57,0,1.09.14.93.92,3.17-1,4.46-3.85,5.53-6.92-.1-.53-.51-.73-.92-.93C464.1,56.06,460,56.11,459.91,60.18Zm-23.58,0c.14-1.08.74-1.73.46-3.24-1.61-.53-2.65-1.65-4.61-1.84C430.74,57.92,434.6,59,436.33,60.18Zm-13.87-2.77c.74,1.59.77,3.86,1.4,5.54.67-1.93,3.55-1.69,4.61-3.23C426.26,59.16,424.87,56.39,422.46,57.41Zm34.68,3.69c-3.33-.35-13.39-2.65-14.8,1.39,4.91,2.64,10.37,4.73,13.87,8.78,4.89-.11,5.84,6.17,10.16,5.09C467,69.37,461.2,65,457.14,61.1Zm-25.43,0c-9.35,6.52-18.55,13.17-29.11,18.49-1,3.14-2.09,3.36-1.86,7.39,18,.74,33.35,7.35,49.91,14.79,4.13-7.12,8.66-13.84,13-20.79C455.85,71.53,441.85,66.73,431.71,61.1Zm-28.18,4.16c-.47,3.81-2.38,7.27-.47,10.17,2.47-1.54,5.06-3,7.4-4.62-1.78-2.23-2-6-5.09-6.93C405.51,65.09,404.73,65.39,403.53,65.26ZM392.9,86.06c2,0,4.27.34,6-1.39-1.36-4.6,2.11-9.18.91-12C398.15,77.75,393.88,80.25,392.9,86.06Zm-31.42-9.24c.2-1.45-1-1.48-2.32-1.39C358.58,77.25,360.25,76.8,361.48,76.82Zm21.26,6.93c-1.56-.92-2.18-2.69-4.17-3.24-6.57-1.81-23.51,1.4-28.65,0-1,1.76-2.16,3.4-3.25,5.08,8.07,1.73,15.71,2.68,23.58,3.71,1.17-2.93,4.62-1.22,6.47-1.39,3.27-.3,6.74-1.61,11.09-.93C388,84.14,384.71,84.93,382.74,83.75Zm92.41,2.31V84.21c-2.58.72-3.76-5.13-6.92-3.7C469.54,83.36,472.94,84.12,475.15,86.06Zm-177,5.09c2.27.32,1.76-2.13,3.7-.93.78-3.18-.56-6.55-1.39-8.32C299.88,85.17,298.72,87.86,298.16,91.15Zm168.21-7.86C461.88,90,456.71,96.11,453,103.62c1.42,0,1.32,1.45,3.23.92C459.48,97,465.62,92.39,471,87A11.7,11.7,0,0,0,466.37,83.29ZM495,93c5.18-.9,10.05,3,12.48,1.85-6.22-4.34-14.69-9.1-22.65-7.86Q489.79,90.15,495,93Zm-13.4,1.39c2-.47,4.92,0,5.55-1.85-2.4-2.12-5.09-3.38-9.26-4.62C477.73,91.49,481,91.61,481.63,94.38ZM340.21,90.22c-6.33-4.09-10.88.4-14.78,3.69-1.51,4.4-2.45,7.06-2.31,12.48a12,12,0,0,1,1.84,6.93c3,4.34,7.71,6,12.94,6,.17-2.13,2.59-2,4.16-2.77-.16-1.63-1.28-1.13-.46-2.77.63.14.88.65,1.85.46C348.05,105.83,344.91,95.7,340.21,90.22Zm-31.89.93c.73,7.59,7.35,9.27,12.48,12.47-.89-6.62,3.4-10.43,3.7-14.32C319.7,89.12,313.38,89.11,308.32,91.15Zm35.13-1.85c1.25,4.45,5.66,5.73,4.62,12.47,4.25-2.37,4.76-8.49,7.86-12C352.13,90.13,347.8,88.13,343.45,89.3Zm43.91,5.54c1.88,2.55,5.1,2.46,7.84,3.24-.26-4.65.79-5.29,1.85-8.78-1.92-1-4,.46-6-.47C390.66,91.67,388.15,92.41,387.36,94.84Zm-11.1-4.16c.15,2,2.31,2,3.7,2.77.1-.36,0-.9.46-.92,1.36,1,2.08.94,4.16,1.85-.08-1.93,1.37-2.33,1.85-3.7-2-2.07-5.46.36-7.39-1.38C379.31,91,377.67,90.7,376.26,90.68Zm24-1.38a32.81,32.81,0,0,0-2.77,10.16c9.11,2.94,15.43,9.12,24,13.4a2.46,2.46,0,0,1,3.68-1.39c4.83-4.07,12-5.76,17.1-9.24-3.4-2.51-10.4-6.86-16.63-6.46C418.58,91,409.79,91.07,400.29,89.3Zm-26.81,2.31c1.14,0,1.44-.88,2.32,0C376.25,89.74,373,89.74,373.48,91.61Zm100.29-1.39c-6.3,4.32-12.11,9.14-14.78,17.1,1.4,1.83,3.79,1.08,4.61,4.15,1.74-1,1.65.24,2.77.93,3.77-6.09,7.49-12.23,12.95-16.63C477,94.34,476.37,91.32,473.77,90.22ZM357.3,92.06c-1.86,8.3-8,12.34-9.23,21.26-7.51,8.68-11.76,20.6-17.57,31,2.63,3.24,4.62,7.08,9.25,8.31,5.24-6.32,11.66-11.45,15.72-18.93a2.6,2.6,0,0,0,1.83-.47c2.42-5.91,8.05-8.6,9.72-15.25,4.06-1.33,3.56-7.22,7.85-8.32.38-1.3-.65-1.2-.46-2.31,4.11-2,5.18-7.15,7.4-11.09C374,94.52,366.3,91.78,357.3,92.06Zm-60.06,2.78c-.19,8.91-.34,16.79,0,26.35,2.66,10.59,7,20.19,14.78,26.8.92-6.47,4.09-10.69,6-16.18-.5-.89-2.12-.65-2.77-1.39-5.55-11.34-10.05-23.2-10.17-38.36C302.15,92.66,300.52,94.58,297.24,94.84Zm215.82,70.25c.52-4.16,4.76-7,5.54-10.64.35-1.67-1.22-2.36.92-2.3.34-1.42-.79-1.37-.47-2.77,3.62-4.4.33-9.87,3.24-13.87-.26-4.95-.17-10.32-.92-15.25-1.23-.93-1.21-3.11-2.32-4.16-.16-8.93-6.65-11.52-10.62-16.64-3.57-.66-4.45-4.09-8.78-2.77-3.46-3.07-10.67-.46-15.71,0,1.5,3.59,4.93,5.23,6,9.24,5.39-3.47,11.42-1,16.18-1.39,5.46,4.66,11.18,9.93,12.48,18.49,2.24,14.9-4.45,25.95-14.79,30.5-.6-.63-2-.46-3.24-.46-3.26,6.8.88,14.23.93,22.18C505.77,174.1,508.53,167.52,513.06,165.09ZM286.14,124.87c.34-1.4-.79-1.34-.45-2.76,4.11-7.7,10.08-12.9,8.77-25C284.44,100.49,279.36,117.75,286.14,124.87ZM380,105.93c8.38-1.9,19.24,2.65,14.8,11.55,1.92-.53,6.67,2.73,7.84,1.39a66.28,66.28,0,0,1,13.87,13.4c2.23-5.1.6-12.9,2.75-17.09-10.56-7.22-21-13.42-34.19-17.1C384,101.38,381.07,102.73,380,105.93Zm89.19,8.78c2.77,4.16,6.65,7.22,10.17,10.63,1-3.1-.09-4.83,1.38-8.31.06-.15,1.49-.29,1.85-.93.55-1,.06-2.66.47-3.24,1.66-2.4,4.31-2.52,4.62-4.62.52-3.76-4.15-7-6.94-9.71C476.34,103.41,471.3,107.62,469.15,114.71ZM319,128.58c2-4.49,3.82-6.89,5.09-12.48-1.15-2.56-2.7-3.87-2.31-7.4-4.29-3.41-8.84-6.56-13.41-9.71C309.18,111.55,313,121.15,319,128.58ZM433.1,124c2.17,1.69,3.43,4.28,6.47,5.09.31-3.48,2.31-5,1.39-7.4.59,0,.64.6,1.38.47.93-6.94,4.92-10.79,6-17.57C441.63,109.38,439,118.3,433.1,124Zm-8.32-8.77c2.32,1.83,3.51,4.82,6.47,6,3.32-5.94,7.16-8.77,10.63-14.8C436.9,108.18,429.38,111.46,424.78,115.18Zm21.72,2.3c1.55,2,2.82,4.28,4.62,6,0-5.75,2.06-10.45,3.7-15.71C449.24,103.58,449.07,114.31,446.5,117.48Zm45.76-7.85c2.12,3.65,5.41,7.28,5.54,11.56,2.9-3.26,3.41-8.92,4.63-13.87C499.24,106,493.7,106.55,492.26,109.63Zm-116,5.55c2.76,2,7.59,2,11.1,2.77.46-.61.43-1.73,1.38-1.85,1.54,2.24,2.09-1.44,4.62-.92C392,107.36,377.38,106.55,376.26,115.18Zm129.4-6c-.75,4.9-3.54,7.75-3.69,12,2.63-1.84,3.44-5.49,7.38-6-.07-1.47,1.23-1.56.93-3.24-.79-.91-2-1.4-2.31-2.77ZM453,125.8c4.19,1.76,5.35,3.7,9.23,5.55.37-5.06,1-11.32,2.77-16.17a22.2,22.2,0,0,1-6.93-5.09C454.22,114.44,454.22,119.86,453,125.8Zm31.42-8.32c3.59,1.71,6.11,3.52,10.63,5.09-1.18-4.51-3.64-7.77-5.09-12C487,111.72,485.93,114.85,484.4,117.48ZM504.27,123c3.75,2.15,6.05-1.36,11.09-.46a14,14,0,0,0-3.23-8.32C509.83,117.5,506.61,119.83,504.27,123ZM288,130.89c5.83,5.88,9.91,13.51,18,17.1.79-1,3,5.09,4.16,2.3-10.26-7.15-13-21.78-17.11-35.11C289.79,118.83,289,125,288,130.89Zm86.88-7.4c2.07-.71,4.3-1.25,5.55-2.77-1.75-1-3.27-2.27-5.09-3.24C374.17,119.2,374.69,121.44,374.87,123.49Zm44.83,5.09c-1.49,8.37,2.58,6.34,7.85,9.24.51.27.47,1.53.92,1.85,4.42,3,11.46,5.17,14.8,7.86.48-3.55-2-3.41-.93-6.47-6-9.92-11.74-17.35-21.25-23.58C421.75,121.17,420.18,125.82,419.7,128.58Zm-61,7.85c4.58-6,13.81-7.44,13.86-18C366.8,123.27,362.5,129.62,358.7,136.43Zm105.83-3.23c2.33-.32,3.37,3,6,3.69,1.13-1.63-1.08-4.37.94-5.54,2.59,1,4.7-.41,6.93.92,1.37-5.76-7-9.14-9.71-13.87H467.3C465.1,122.68,465.71,127.52,464.53,133.2Zm-143.27-.93c2.22,3.18,3.66,7.14,7.41,8.79,3.8-6.84,6.12-12.34,10.15-19-5.1,2-8.63-1-12.93-2.32C324.63,124.89,322.05,127.68,321.26,132.27Zm163.14-.46c3.65-2.72,6.79-3.29,10.63-6-4.44-1.11-7.2-3.9-11.55-5.08C481.57,124,481.49,129.44,484.4,131.81ZM381.81,130c4.55,1.77,7.4,5.24,10.17,8.78,2-4.86,3.63-10,6-16.17a1.27,1.27,0,0,1-.93-1.38C387.68,119.27,383.87,125.16,381.81,130ZM441,132.27c2.37,5.75,4.65,10,4.62,16.64,3.2,1,4.2,3.15,6.93,2.78-.24-8.53-4.65-15.48-1.86-23.57-1.67-2.18-2.81-4.88-5.54-6C443.54,125.31,443,129.49,441,132.27ZM394.76,142c2.28,1.56,3.62,6.52,5.53,6.93A147.34,147.34,0,0,1,404,123.49a3.09,3.09,0,0,0-2.33-.46C399.66,129.64,396.05,134.66,394.76,142Zm-18.5-14.32c1.79-.41,1.64,1.12,2.78,1.38.36-2.24,2.12-3.11,2.77-5.09C379.55,124.78,376.41,124.73,376.26,127.66Zm127.08-1.4a37.65,37.65,0,0,0,12,7.41c-.1-2.78,2.35-5.22.47-8.8C511.16,125.16,507.27,125.86,503.34,126.26ZM402.13,153.53c4.91.13,9.5-2.82,14.79-6.46-1.35-9.29-3.63-17.63-10.63-21.27C404.76,136.65,402.92,144.69,402.13,153.53Zm-38.81-17.1c.14,2.32,2,2.91,2.77,4.63,4-2.77,7.9-5.66,10.17-10.17C371.75,125.94,366.18,132.87,363.32,136.43Zm95.2,21.72c5,1.28,18.6-.15,20.34,7.4.78,3.44-1.87,8.17-8.79,6.47-2.54-2-4.18-7.61-.92-10.17-3.93,1.56-4.68-2-8.78-.46C464,169,471.12,173.12,477.45,178c.62-1.94,1.53,0,2.79,0,2.85-5.15,9.37-6.64,10.17-13.86-6.71,4.13-14.91-8.29-4.61-11.09,1.9-.53,1.79,1,3.21.92-1.3-8.24-8.42-10.66-9.23-19.4-2.29,1.42-3.59-1.56-6,0-.22,3.23,1.33,5.84-1.39,6.93-6.47-4-13.22-7.74-19.4-12A48.75,48.75,0,0,0,458.52,158.15Zm28.2-24a19.38,19.38,0,0,0,4.62,6.94c1.28-3.79,3-7.14,4.14-11.1C492.35,131.13,490.1,133.2,486.72,134.12Zm24.95,10.63c1-2.73,2.76-4.63,3.23-7.86-4.37-1.49-8.86-5.3-12.47-6C506.12,134.88,507.16,141.55,511.67,144.75Zm-141.87,0c5.17,3.14,9.76,6.86,17.09,7.85,1.52-3.55,3.3-6.85,4.16-11.08-4.24-3-7.15-7.05-11.09-9.25C377.41,137.28,372.08,139.5,369.8,144.75Zm123.38,1.39c1.4,1.68,2.09,4.07,5.08,4.15,1.55-5.36,1.3-14-.91-17.09C495.91,137.47,494.71,142,493.18,146.14Zm7.85,4.61c1.71-1.83,5.56-1.52,7.4-3.22a69.55,69.55,0,0,0-6.93-12.48A155.18,155.18,0,0,1,501,150.75ZM45.83,136c-2.49,6.14-5.5,11.76-7.4,18.48,5.3-.18,8.15-.58,12.94,0-1-2.83-3.9-3.78-4.62-6.92,4-9.24,21.78-10.08,24,.46-1.66,1.59-1.92,4.55-3.69,6-3.93.1-5.06,2.1-8.33.93-.85.65.73,2.24-.47,3.23a160.43,160.43,0,0,0-21.71,0c-8.19,20.42-16.26,41.87-25,63.77,2.88,1.44,4.72.21,8.78.47C19.25,210.26,26.36,202.18,32,194.2c5.47-3,10-4.8,13.87-7.86,5.82.53,15-2.43,20.33.46,1.51.57.36-1.49,1.85-.92,10.36,5.05,18.81,12,24.95,21.26a49.24,49.24,0,0,1,.47,7.39c1.37.49,1.36,2.34,3.7,1.85-3-26.54-8.84-54-13.4-80.41C71,136.09,58.14,135.31,45.83,136Zm268.05,13.86c2.87.67,4.15,2.93,6.92,3.7-.44-2.86-.47-6.36-.92-10.16,1.05-2.12,2.79-6.51-.46-7.86C318.24,141,315.61,145,313.88,149.83Zm176.53-2.76c-1.57-4.6-3.9-8.43-7.39-11.1C484.86,140.28,485.84,145.48,490.41,147.07Zm-133.56-8.8h1.39c.13-1-.11-1.73-.94-1.84C357.17,137.06,356.65,137.32,356.85,138.27Zm-48.06,22.66c1-1.29-.2-4.83,1.39-5.55-4-4.46-10.45-6.5-13.88-11.56h-1.84c-1.83-1.7-2.14-4.94-5.08-5.55A44.84,44.84,0,0,0,308.79,160.93Zm111.83-10.64c7.15.77,11.7,8,13.41,15.73,1-1.65,1.79-3.45,3.7-4.17-6.58-7.59-11.37-17-19-23.58A54.85,54.85,0,0,0,420.62,150.29Zm-68.39.93c4.12-2.65,9.3-4.25,11.55-8.78-1.53-.77-1.8-2.82-3.23-3.7C359,143.88,352.33,146.21,352.23,151.22Zm325.33-10.63c-6.06.11-17.49-1.64-24.94.47,1.92,5.94.42,13.81,2.31,18.94,11.26-.36,19.39-1.13,28.19-1.39.32-7.69-3.9-16-3.24-18.47-.1.51-.51.71-.92.92-.1-.92,2-2,.92-2.32-.1.56-.51.29-.92,0C678.5,139.35,678.53,140.46,677.56,140.59Zm-323.94-.45a17.24,17.24,0,0,0-.93,3.23c1.11-.6,2.51-3.32,2.31-3.7C354.93,140.2,354.27,140.18,353.62,140.14Zm-30.05,10.15c2.2-.87,2.61-3.55,3.24-6a16.8,16.8,0,0,1-3.24-3.23C322.64,144.38,324.27,146,323.57,150.29ZM440,159.54c1.45-2.4,2.17-5.53,3.23-8.32-4.5-2.14-11.63-6.83-16.64-8.32C431.34,148.2,435.22,154.34,440,159.54ZM50.46,146.14C50,154.47,66.28,153.1,68,148,63.57,142.77,56.75,143.31,50.46,146.14Zm300.85,9.7c-.06-1-2-.2-2.77-.46-.38,1.63-1.87,2.14-1.87,4.16h1.87c4.85,5.85,10.81,7.88,17.55,12,2.45-.77,4.67-1.79,6-3.7,2.73.5,3.42,3.06,5.54,4.17,2-5.72,5.44-10,6.94-16.18-7.45-2-12.73-6.07-17.56-10.63C361.87,149.55,355.76,151.76,351.31,155.84ZM389.66,154c4-.13,5-.52,8.32,0-1.75-3.54-1.9-6.32-5.55-8.32C392.4,149.34,390,150.65,389.66,154Zm-47.6,1.39c2.08-.34,1.21-.95,3.69-.46.08-3.09,5.23-5.76,2.79-8.31C347,150.1,343.63,151.87,342.06,155.38Zm-16.17-.46c2.67.43,7.62,0,10.17,0a9.13,9.13,0,0,0-7.86-6.47C328.22,151.39,325.83,152,325.89,154.92Zm381.72.92c3.27,3,8.13,1,12,1.85-.1-1.64,2.17-.92,1.85-2.77C718.37,150.4,709.37,150.92,707.61,155.84Zm-214.43,7.4c2.27-3.32,3.39-9.14-.92-11.09h-.92A48,48,0,0,0,493.18,163.24Zm-51.3-1.39c.09,4,6.86,6.16,8.77,10.17.88-5.44,2.26-10.38,2.78-16.18-3.28-.4-4.35-3-7.85-3.24C447.09,156.61,441.8,158.61,441.88,161.85Zm-38.82,12.48c3.71,1.92,7.93.46,11.56,0,3.45-5.53,2.85-12.93,2.77-21.26C407.7,155.4,406.23,166.8,403.06,174.33Zm15.72-3.23c5,.22,9.65-1.2,12.47-5.08-2.67-5.19-4.1-11.62-10.63-13A180.2,180.2,0,0,1,418.78,171.1Zm-98.44-13.87c.46-1.55-.64-1.52-1.85-1.39C318.35,157.06,319.13,157.36,320.34,157.23Zm81.79.92c0-.91,1.27-.58.93-1.85a2.16,2.16,0,0,1-1.39-.46C401.05,156.43,401,158.1,402.13,158.15Zm81.81-.92v3.24a12.29,12.29,0,0,0,5.54,0c.1-2.42-1.38-3.25-2.3-4.63C485.87,156.07,485.21,157,483.94,157.23ZM380.42,172.48c5.38-3.81,10.34-5.7,13.87-9.71.3,1.39,1-.44,1.84,0,.68-2.09,1.82-3.73,2.31-6-4.41-.38-6.57-.08-9.7-.47C385.54,161.29,383.05,167,380.42,172.48Zm-67.48-15.71c-3.05,2.6-.83,9.41.47,12,5.39.58,6.29-1.29,10.16-3.23C323,160.69,317.11,159.29,312.94,156.77Zm16.65,4.62c-.68-2.23,2.65-.43,2.31-2.31-2.41-1.44-4.46.48-7.4-1.39C324.68,160.43,327.62,160.42,329.59,161.39Zm3.69,1.38c2.08.85,3.65,2.21,6.47,2.32-.13-2.59,1.86-3.07,2.31-5.09C339.81,155.9,334.89,160.61,333.28,162.77Zm62.85,13.41h4.16a74.69,74.69,0,0,1,5.08-16.64C398.5,161.9,397.68,170.81,396.13,176.18Zm56.85-.93c2.27,3.12,4.66,6.12,6.93,9.25,6.86-1.1,12-.78,16.17-5.55-8.78-2.11-14.74-10.32-20.34-18C454.66,166.32,454.74,171.44,453,175.25ZM691.9,197c-2.06-11.59-5-22.74-7.85-35.58-8.08-.2-19.88-.18-27.27,1.85,1.76-1.24-2.59-1.32-2.78-.47,1.74.76-.38,4.15,0,6.47.09,1.31,2.2.58,1.86,2.31.39,9.78,2,22,1.85,30,1.49-.11,1.08,1.7,1.84,2.31C664.77,196.5,682.6,193,691.9,197Zm-349.37-30.5c2.71,2.34,5.11,3.87,9.24,2.77.52,1.07,4.52,2.69,4.62,0C350.4,169.58,345.13,157,342.53,166.47Zm127.54-.92v3.23c2.42,2.11,4.22-.35,6.47,0a8.07,8.07,0,0,0-.93-5.08C473.41,163.91,471.91,164.11,470.07,165.55Zm13.41,13.86c4.79.29,6.23-1.12,9.7,0,1.29-1.54,2.55-1.78,5.08-2.77.07-3.43.55-11.82-1.85-12.94C493.3,170.13,488,174.36,483.48,179.41ZM329.59,165.09c-3.79,3.83,1.58,11.06,4.16,14.32,1-4.46,2.41-6.42,3.69-11.09C334.23,168.32,332.72,166.24,329.59,165.09Zm121.06,13.39c-2.65-5.18-7.66-8-10.16-13.39a6.91,6.91,0,0,0-5.07,4.15c1.23,1.24.89,4,1.84,5.55,5.65,2.37,8.2,7.81,13.39,10.63Zm-69.3-3.69c2.29,2.9,7.06.53,11.08,1.39.86-3.75,3.81-7.77,2.33-10.16A43.11,43.11,0,0,1,381.35,174.79Zm-45.29,8.32c2.79,5.69,7.23,9.7,11.08,14.32a120.71,120.71,0,0,0,14.79-7.85c-.22-5.3,0-10.16,1.85-13.4-7.27-1.28-16.91-4.61-23.57-6.47A49.42,49.42,0,0,1,336.06,183.11Zm91.49-9.71c2.68-.63,4.73,1.18,6,.46C434.13,168.92,428.69,171.22,427.55,173.4ZM373,172.48c-6.08.24-8.88,7.76-8.77,15.72C371.63,194.24,379.88,176.92,373,172.48Zm153,8.31c-1.25,1.77-1.51,4.13-2.77,6-2.8,4.22-7,8.06-9.71,12.48-1.13,1.83-1.18,4-2.31,5.55-.8,1.1-2.34,1.55-3.23,2.77-4.85,6.69-8.34,13.67-12.94,19.41.64.12.52,1,.92,1.39,4.27-2.61,6,2.08,9.71,2.77-.07-2.24,1.89-1,2.77-.47,3.09-3.6,8.58-5,12-9.24.63.15.89.66,1.85.46,6.16-8,17.6-18.47,12.48-31.88a9.66,9.66,0,0,0-1.85-8.32c.66-2.41-.21-6.3-2.77-6.93C530.09,178.14,527.48,178.7,526,180.79Zm-106.77-4.15c-2.77,3.4-2.46,8.28-5.07,12.48,8.78.28,13.39-.74,20.33,0,.57-4.81,1-8.4-.45-12C428.38,175.89,424.69,175.44,419.22,176.64Zm-16.62,1.84c.27,2.8-.42,5.83,0,7.4,2.64-2.6,5.66-4.81,7.86-7.86C407.82,176.85,406,180.18,402.6,178.48Zm-20.33.47c2,2.19,6,2.3,8.78,3.7C392.75,178.67,385,178.47,382.27,179Zm11.09,4.16a17.82,17.82,0,0,0,5.55,2.31c.22-1.62,1.39-6.71.45-6.47C397.39,180.37,392.75,178.29,393.36,183.11Zm44.82,5.55c3.29,1,6.52,0,9.71.46-2.54-4.08-5.58-7.67-10.16-9.71C436.14,183.13,439.34,184.88,438.18,188.66Zm48.07-5.09c.1,7.29-3.11,11.24-2.31,18-.68.24-1.16.68-1.85.93.5,4.94-1.72,9.62-2.77,15.25,11.33-7.19,18.72-22.6,18.94-37.89C493.6,182.41,489.86,181,486.25,183.57Zm-79,3.23c3.2,4.1,6.2-1.43,6-6-.1-.35-.39-.53-.93-.45C410.5,182.38,409,184.73,407.22,186.8Zm-32.35,2.78c7.14,5.17,14.44,10.21,21.72,15.25-.85-7.47,4-9.3,2.77-17.1-8.46-1.09-14.6-4.49-21.72-6.94C378.93,184.07,374.64,187.4,374.87,189.58Zm79.5-1.38c1.69.3,1.76-1,3.23-.94-.24-3.15-2.59-4.18-4.62-5.54A9,9,0,0,0,454.37,188.2Zm25.87-6c-2.77,7.75-3.94,13.95-5.09,23.56-2.33,5-3.4,9.25-3.69,16.64,6.27-2.1,5.14-9.27,8.32-13.86a113.92,113.92,0,0,1,5.08-26.34C483.81,181.27,482.28,182.67,480.24,182.19Zm-21.72,15.24c3.3,5.49,7.62,9.94,12,14.33,1.38-8.33,4.06-19.06,4.63-27.26C469.81,189,464.33,193.38,458.52,197.43Zm-199.19,9.25H258a4.45,4.45,0,0,1-1.38,5.54c1.37,1,1.48,2.22.92,4.16,4.22,8.08,9.14,21.77,17.1,24,.87.2.43,1.68.92,2.3,4.09,5,6.52,2.28,11.55.93,1.31.08.59,2.2,2.32,1.85.07-.54.73-.51,1.38-.47-6.49-18.4-12.37-36.23-19.4-53.14.68-.09.41-1.12.45-1.85-2.35-.58-1.24-4.61-3.69-5.09C264.46,191.65,259.33,199,259.33,206.68ZM455.74,190.5a5.17,5.17,0,0,0,.93,3.7,25.35,25.35,0,0,0,10.16-7.4C462.24,187.59,459.43,190,455.74,190.5ZM331.9,205.29c5.07-.94,7.14-4.86,12.47-5.54-1.74-5.21-6.4-7.47-9.25-11.55C332.3,193,333.4,200.18,331.9,205.29ZM28.72,202.52c-1.07,5.28-5.36,10-6,17.1-.12,1.44,1.12,3,0,4.62a102,102,0,0,1,6,13.4c2.86,3,7,4.71,9.25,8.32,2.89-1.73,4.15,2.55,6.93.92,4.74,5.68,17.56,2.16,24,2.31.13-1.41,1.75-1.33,2.31-2.31H74c.89-1.54,2.69-3.19,4.62-2.31,8.23-6.4,15.39-17.47,13-31.42-1.34-1.31-1.34-1.82-.94-4.16-8.14-12.32-20.74-22.49-39.28-19.41C42.11,191,35.1,196.86,28.72,202.52Zm375.73-.46A19.81,19.81,0,0,0,410,190.5c-2.19.19-3.33-.67-5.07-.92C401.12,192.88,403.86,198.33,404.45,202.06Zm.92,5.54c.77,4.8,5,10,6.47,13.86,2.53,1.33,6.67.57,9.25,1.38,9.11-6.2,12.86-15.37,13.86-30a219.78,219.78,0,0,1-22.19-1.39C411.18,198.58,408.07,202.32,405.37,207.6Zm33.73-15.25c-2.57,7-2.44,12.5-4.62,19.41-1.67,0-2,1.36-1.83,3.24,1.88-.94,5.83-1.85,8.31-3.71.35-.25.17-1.47.45-1.84.66-.82,2.85-1.43,3.25-1.85s.4-1.69.92-2.31c2.68-3.19,6.53-4.89,6.93-6.93.45-2.27-1.69-5.13-3.23-6.94C445.06,191.5,443.35,193.06,439.1,192.35Zm-89.18,6.93c.09.88-.52,1-.46,1.85,4.16.83,5.14,6.57,9.7,5.55.55-5,5.66-10.31,4.62-13.87C359.34,194.49,354.48,198.1,349.92,199.28ZM375.33,197c7.68,5.88,10.48,16.65,18,22.65,3-2.76,2.1-8,2.3-12-8.07-4.18-13.35-9.36-20.79-13.4C374.86,195.29,375.66,195.56,375.33,197Zm-9.24,17.56c2.15.63,3.58,2,5.55,2.78-2-4.43,1.13-9-1.84-12.94.32-3.19,1.44-7.57-1.39-8.78C367.78,202.13,367,207.51,366.09,214.53Zm7.86,3.7c5.22,2,11.08,8.88,17.1,4.61-5.92-7.22-8.7-14.75-15.72-20.78,1.11-1.81-1.42-3.34-2.77-4.16C373.07,205.13,373.35,210.85,374,218.23Zm321.64,34.66c4.72-1.37,7.13-5.18,9.25-8.78.67-1.13,2.13-1.58,2.77-2.77,1.88-3.49,4.37-10.1,4.62-13.86.13-1.88-1.38-2.48-1.38-4.17,0-6.1-4.6-10.91-6-15.24a52.72,52.72,0,0,0-18.48-9.26c-4.64.08-10.74.81-15.71.94a86.82,86.82,0,0,0-13.41,8.78c-1.68,6.41-7.38,8.94-6,16.17-2.76,3.54.13,6.93,0,11.56,5.7,12.39,18.24,22.95,32.82,19.86.48-4.46,6.4-.15,8.31-3.69C692.56,253.46,694.64,252.62,695.59,252.89Zm-243.08-23.1c5.7-2.08,11.68-2.15,15.72-6.48-1.19-2.82,1.16-3.79.92-6.93-5-4.56-8.67-12.88-13.41-16.17C457.93,209.59,457.55,222.31,452.51,229.79ZM333.28,209.45c6.84.17,6.86,13.25,4.16,20.79a69.29,69.29,0,0,0,7.39,6c4.77-7.72,7.25-17.72,12-25.43-3.14-3.17-7.23-5.38-10.18-8.77C342.05,203.89,336,206.81,333.28,209.45Zm66.54.92c1.93-1.52,2.62-6.68,0-8.31C400.33,206,397.44,208,399.82,210.37Zm25,13.87c1.83,1.25,4.25-.17,6.47,0,.67,1.89.37,4.84.46,8.32,6.15,1.51,11.07-1.33,16.65-.93,2.77-5.49,5.3-10.46,4.62-17.56,3.32-2.83.91-7.44,0-11.09C445.55,212.61,434.51,218,424.78,224.24Zm-61.93-12.48c.47-1.26,2.19-5.61,0-6.47C362.29,207.3,359.29,211,362.85,211.76Zm-53.14,1.39c.23,2.55,2.17,3.38,3.7,4.62,1-1.46,1.11-3.82,1.39-6C312.59,211.71,311.51,212.78,309.71,213.15ZM322.65,215c.45,7.71-4.42,9.21-6,15.7-1.11.44-1.22,1.86-3.23,1.39-.56,5,1.42,7.52,2.76,10.63,3.61-.35,8-.56,11.1-3.23,1.2-1,1.12-3,2.32-4.62,1.65-2.26,3.48-2.36,3.69-4.17s-2.73-4-3.24-7.39c-.53-3.65-.73-6.78-1.37-11.55C326.7,212.88,324.65,213.91,322.65,215Zm75.79,2.77c3.39,3,.86,12.93,7.4,12-.13-3.1,1.14-3.85.92-6,1.41.36,3.76,1.45,5.08.46-4-3.28-6.74-7.74-9.24-12.48C401.29,213.84,399.53,215.46,398.44,217.77Zm-62.85,7.85c.6-3.85,0-6.3,0-11.09-2.14,0-2-2.32-4.17-2.31C333.81,215.88,331.8,222.65,335.59,225.62Zm12,13.41c2.65,4.29,9.22,1.5,12,3.23,1.86-7.94,1-16,2.77-26.34-1-1.17-1.72-2.57-3.69-2.77C354.7,222,350.82,230.48,347.61,239Zm-31-23.11c1.83.54,2.46-2.15.93-2.31C317.36,214.49,316.25,214.44,316.64,215.92ZM305.09,221c2.15-.89,4.61.59,6.93.92-1.33-2-2.25-4.52-4.62-5.54C307.57,218.85,304.37,218,305.09,221Zm60.55-3.23c-1.89,9.13-1.89,15-2.79,23.57,4.36.32,7.35-3,10.63-5.08-1.06-4.8-.94-10.77-1.84-15.72C369.43,221,368.72,217.81,365.64,217.77ZM94.36,221c.76,2.64-1.45,3.28-.47,6.48-2.45,8.63-8,14.2-13.4,19.86-4.47.62-9,4.62-14.33,4.16-3.15,2.82-8.74.38-12.48,1.39v2.77c4.68.05,7.32,0,9.71,2.78,10.49-.57,20.17.67,31.89,0,3.58-4.29,4.39-6.88,10.17-6.48,2.27-3.67,12.93-2.67,16.17,0,5.32-.74,8.63,4.24,11.55,7.4,4-.84,6-2.81,9.7-1.85-.69-4.26-6-3.5-8.31-4.62-2.73-1.31-6.15-2.11-9.24-3.7h-3.7c0-.58-.59-.64-.46-1.39-3,.34-8.33-.19-9.71-1.84-3.59.75-7.2.89-8.77-1.39-.22-8.3-.45-16.06,0-24.49C99.47,218.71,97.53,220.37,94.36,221Zm297.15,5.09c1.85,1,5.86,3.17,8.31,1.39-3-1.32-.05-6.34-4.16-6.94C395.77,223.88,392.51,223.86,391.51,226.09Zm-15.71,8.78c4.51-1.68,6.71-4,9.7-7.86-4.66-.74-7.34-3.43-11.55-4.62C375.48,226.37,374.58,231.5,375.8,234.87Zm94.72-8.78c-1.67,7.78-2.44,14-4.61,21.71,1.7.74,3,1.07,4.61,2.78.93-9,3.46-16.52,5.09-26.34-.57,0-.63-.59-1.37-.46C473.62,225.16,472,225.56,470.52,226.09Zm-166.36,1.39a8.68,8.68,0,0,0,6-2.32c-.9-2.19-4.32.72-6-.92C303.93,225.76,303.74,226.27,304.16,227.48ZM416,226.55c0,.59-.58.64-.46,1.38-1.71-1.56-4.66-.31-6.47-.92-1.66.92-.47,3.07-.93,4.62,0,.17-1.29.12-1.38.46-.6,2.5-.95,6.23-1.84,7.87-1.91,3.4-11.93,1.78-14.33,2.76-1.52,2.52-5.38,1.23-6.94.46a11.92,11.92,0,0,0-1.84,1.85c-1.69-1.34-3.42.36-4.63.93a49.37,49.37,0,0,0-37.89,19.87c-.55,3.63-1.79,9-.47,12.94,8.16-6.91,31.08-6.22,34.2,8.31,5.3-.89,9.21,3,9.72,8.33,13.33-1.06,25.89.47,39.27-.94,4.21,1.29,8.6-.18,11.09.48,3,.8,8.27.38,12,0,7.81-.79,15.85,1.13,21.26-.93a1.32,1.32,0,0,0,.93,1.39c2.61-2,8.24,1,10.62-.94,0,.61.61.66.47,1.41,8.81-1.75,18.63.6,25.42-1.41-5.42-2.28-11.77-7.2-17.09-11.07,0-5.12-.31-7.68,0-12.48a22.66,22.66,0,0,1-3.7-6.47c-3-1.44-4.23-4.71-6-7.4-12.3-5.69-22.75-11.83-37-14.33-1.51-.26-2.15.32-3.25.46-1-1.63-3.76-1.48-6.46-1.38-1.86-3.23-.52-9.65-.93-14.32C426.08,225.81,420.76,227.93,416,226.55Zm-110.91,3.24c.06,3.07,6.53,2.07,6-.93C308.52,229.06,308.35,229.74,305.09,229.79Zm89.67,1.84c-5.14-7.16-9.88,2.76-14.8,4.16-.65.28-.08,1.78-.92,1.85a78.18,78.18,0,0,1-15.72,6.93c5.68,1.37,12.84-4,18.95-3.71.08-.67-.17-1.69.47-1.83,4.86,2.93,11.11-1.18,18.93.46.11-.37.39-.54.93-.46,1.17-2.34-.13-4.73-.93-6.47C398.47,233.14,398,231.05,394.76,231.63Zm71.61-2.31c-7.22,2.71-17.26,3.77-20.79,11.54,6.21,1.36,11.52,3.6,17.11,5.56C464.27,239.66,465,235.76,466.37,229.32ZM331.9,238.56C337.64,242.87,343.36,249,349,252c3.41-3,6.82-3.45,9.71-6.46-11.65,2.14-17.29-5.74-24-11.1C334.77,236.82,331.89,236.25,331.9,238.56Zm99.81-1.85c2.55,5.37,12.23,4.7,13-1.38C439.39,235.59,436.09,236.49,431.71,236.71ZM720.08,252c-6.29,1.09-13.23-1.83-19.87,1.86,2.92,3.4,7.27,5.36,8.79,10.16,16.13.47,26.06-.09,40.68-.46C742.54,255,730.31,255.46,720.08,252ZM143.8,258.89c-3.83,2.33-7.33,3.89-12.47,3.7-2.57-5.87-10.06-7.79-14.79-10.16-11.21,2.74-20.8,2.38-21.73,17.1a5.79,5.79,0,0,1,2.77,5.09c.88.1,1-.53,1.86-.47,4.61,7.42,14.09,3.8,20.34,4.62.45-.47.9-.93,1.38-1.38,3.84,1.36,9.83-8.27,13.4-.93h2.78c1.18,3.18,4.17,1.92,6.92,1.86,3.62-.1,7.77,2.06,11.1,0,.44-.28.24-1.08.92-1.4,4.85-2.26,7.62-3.54,6.93-9.7-2.35-3.05-6.15-4.64-8.77-7.4C150.39,261.42,148.91,258.47,143.8,258.89Zm544.86-2.3c-4.7,1-7,4.39-9.7,7.39-2.24.39-3.27-.43-4.62-.93-.49.44-.15,1.71-1.39,1.4-6.42-.7-12.27,3.1-11.55,11.09,2.56,1.13,4.27,3.12,6.47,4.62,4.74-1,10.08,1.44,13.4-1.39,3.54,5.13,10.78,3.87,18,4.17.86-1.92,2.91-2.65,5.08-3.24,5.79-7.63,2.69-18.78-4.61-22.19-2.8,1-4.56-.29-6.93-1.85C692.4,257.61,690.26,256.8,688.66,256.59Zm-177.92.92c-.1.87.51,1,.46,1.85a1.74,1.74,0,0,0,1.86-1.85C512.18,256.64,511.89,257.46,510.74,257.51Zm-462.6,2.31c-11.17.57-17.93,10.86-7.4,16.64.71.38,1.57-.53,1.85-.46,1.29.35,2.42,2.15,3.24,2.32a43.33,43.33,0,0,0,12,0c4.6-.84,12.35-5.84,11.56-11.1-.65-4.18-6.2-4.74-7.86-7.4C57,261.38,51.67,256.79,48.14,259.82Zm612.33,3.7a119.55,119.55,0,0,0,17.56-3.7C673.28,258.45,663.29,257.52,660.47,263.52ZM97.58,278.77c-2.44-5-7.57-9.53-4.62-17.56-8.55,0-17.36.21-24.49-.47-.29,2.91,3.21,2,3.24,4.64.31,5.63-.42,12.37-5.08,11.54,0,4.47-1.42,5.62-1.4,10.63,3.14,1.81,6.71,3.16,9.72,5.08C83.45,288.66,88.41,282.45,97.58,278.77Zm227.85-6.93c.08-1-.39-1.48-1.39-1.38-7.74-1-14.61,1.21-20.34,0-1.3-.28-2-1.26-3.23-1.39-7.5-.8-14.55,2.22-21.26-.93-6.49.3-16.13,1.49-21.26-.47-6.27.27-14.07-.78-19.4.47-.82-1-2.78-.92-3.71-1.85-12.24,1.92-27.19-2.4-41.12-.91-1.46.2-1.24-1.26-2.32-1.4-8.71.82-18.68-.46-26.79.47-.3,2.75,1.79,3.13,1.83,5.54-1,7.91-8,9.84-13.87,12.95-9.21-.6-14.1,6.33-20.79,8.78,2.32,2,4.83,1.3,7.4,1.38,6.55.2,14.82.27,21.26.46,20,.59,39.71-.46,59.16,1.39,3.66.34,7.9-.87,12-.93,6.57-.11,14.5,1.11,21.27.93,15.05-.4,36.45-.06,55,0-.57-13.16,10.12-14.72,18-17.1,3.8.19,6.4,1.61,10.17,1.85v-7.86A25.06,25.06,0,0,0,325.43,271.84Zm427-4.62c-4.56,5-3.85,7.36,0,11.1,1.82,1.77,2.37,2.86,4.14,3.22,6.34,1.28,13.91-1,18-5.08C775.83,263.68,760.84,264.12,752.45,267.22Zm-136.34-.46c.42,1.48-1.51.64-1.85,1.38-6.55-1.47-17.62.23-25.42-.92-8.11,3.18-21.67.41-29.57,1.38-18.73,2.32-33.84,1.78-55.46,2.32-1.24.15-1.63,1.15-2.78,1.39-4.3-1-8.8-.23-11.55,0-1.24,2.06,0,5.11.93,6.46,9.69-4.62,27.81,4.11,24.49,16.18,13.31.48,23.12-.6,37-.48,41.72.42,74.06.79,114.61.48.4-3.63-.23-7.79,0-12.48-6.83-2-10.48-9.7-6-16.64C643.55,268.27,634.71,266.77,616.11,266.76Zm126.15,11.56a11.88,11.88,0,0,0,4.63.45c-1.95-4.88-.22-9.18,1.85-12.48-2.25-.05-4.86.25-6.48-.46C741.43,270.14,742.31,273.33,742.26,278.32Zm-23.1-11.56c-1.4,1.15-1.48,6.34.47,6.93,4.62-1.22,8.17,2.79,13.4.93.6,1.59,2.81,2.3,4.63,1.38.86.05.31,1.53,1.38,1.39,1.63-2.73.4-7.11.46-10.63C732.69,266.38,726.71,267.71,719.16,266.76Zm-8.77,1.84a23.12,23.12,0,0,1,.46,6.47c1.18.73,2.67-1.42,4.16-1.83.09-2.27.1-4.43-.92-5.57C712,267.18,711.79,268.46,710.39,268.6ZM719.16,295c3.66-.58,9.56.14,14.33,0,1.27-2.59,4.28-3.42,6.47-5.08-.68-3,0-4.73,0-8.79-6-2-15-3.47-21.27-5.08A67,67,0,0,0,719.16,295ZM114.23,283.4c5.94,2,9,4.11,14.33,6.47,3.16-3,9.46-3.75,12-7.86-4.75-.34-7.59-2.6-10.17-5.09C126.73,281.2,119.53,282,114.23,283.4Zm591.06-1.86c-1,4.7-7,2.29-8.77,5.54,6.61,2.07,13.28,4.77,18.49,6.94-.69-6.51.34-10.92-.45-16.63C709.87,278,710.23,282.05,705.29,281.54Zm-647.91,0c0,2.91,4.18,3.7,5.55,3.7-.64-2,.14-2.58,0-5.08C60,279.68,59.55,282.66,57.38,281.54Zm440.42,0c-.95-2.58-4.29-.3-6.93,0-.25,2.1.68,3,2.77,2.78,4.55,4.38,10.71,7.16,15.71,11.09.19-.79.6.09,1.39,0C516.46,288.29,504.28,280.61,497.8,281.54ZM102.68,294c8.56-1.43,16.3,1.49,21.72-2.3-6.62-3.9-14.29-7.38-22.19-11.1C102.7,286.32,102.24,289.46,102.68,294Zm-6-12.48c0,1.18-.84,1.62-1.38,2.32-6.16,2.52-9.88,6.52-15.72,10.16,6.29.53,12.88-.45,19.41,0,0-5.13.21-7.57,0-12.48Zm645.6,6a11.17,11.17,0,0,0,7.42-4.61,28.9,28.9,0,0,1-7.42-1.4Zm-66.52-3.23c-1.34-1-4.63,0-6-.92.17,2.45,0,6.94,0,11.55,6.26-.3,10.77.33,15.25-.48-.24-4.26-.42-6-.47-10.15C681.55,282.88,678.76,282,675.74,284.32ZM51.83,294.47c4.32-1.05,5.64,0,9.71-.45.34-1.66,1.76-2.24,1.39-4.61-4.11-2.05-8.13-4-11.56-5.55C51.42,288.08,50.88,290.73,51.83,294.47Zm692.29-2.3c-.08-.67-1.11-.42-1.86-.45-.2,1.76.13,2.94.94,3.69,6.42-.32,12.71.21,17.1-.46-.28-3.15-.76-5.95,0-9.71C753.64,281.39,748.74,288.66,744.12,292.17Zm-55.91-3.69c1.25-.44,3.19-.21,2.77-2.32-1.88.64-1.46-1-2.77-.92A2.86,2.86,0,0,0,688.21,288.48Zm-.47,3.24v2.75c4.86-.09,11.18,1.34,17.1-.45C698.86,290.79,694.2,287.54,687.74,291.72ZM333.28,295c1.79-1.7,5.69,1.4,6.47-.93-2.06-.57-2.56-2.67-4.16-3.7C336,292.94,332.09,293.05,333.28,295Zm44.83-3.71c-5.64-3.12-5.23,5.62-9.26,6.94.46,28.22-.06,48.4,0,73.94,27.39.18,52.16-.38,80.88-.46,33.39-.1,77,.93,119.25.46,30-.33,51.63-.07,79.48,0,29.5.07,62.59-.07,93.36-.46,1.47-.4.95,1.2,1.84,1.37,14.41-2.21,30.26.47,46.67-1.37-.45-23.41.94-46.64-.47-72.55-39-.72-76.8-.59-117.37-.47-13.39.05-25.49.52-39.74,0-33-1.21-69,.84-104.45.47-46-.49-93.39-.59-147.88-.47C380.24,295.58,379,293.59,378.11,291.24ZM64.78,293.56c1.45.85,3.2.09,4.16,0-.53-1.48-1.84-2.15-3.71-2.32C65.63,292.56,64.59,292.44,64.78,293.56Z"/><path class="cls-2" d="M43.66,319.22c0-3.94,2-5.17,5.16-5.17H59.59c9.64,0,18.47,4.2,18.47,19.38,0,12.28-6.83,19.39-18.63,19.39H48.82c-3.12,0-5.16-1.23-5.16-5.17Zm8.82,26.49h7.43c7.07,0,9.32-6.3,9.32-12.28,0-7.64-2.91-12.27-9.37-12.27H52.48Z"/><path class="cls-2" d="M90.23,340.22c0,4.15,2.69,7.16,7.27,7.16,5.93,0,5.93-3.87,9.1-3.87a3.24,3.24,0,0,1,3.23,3.07c0,4.73-7.59,6.94-12.33,6.94-11,0-15.13-7.43-15.13-14.27,0-9.15,5.54-15.29,14.86-15.29,9,0,14.22,6.41,14.22,12.87,0,2.7-.81,3.39-3.45,3.39ZM104,335.7a6.73,6.73,0,0,0-6.63-6.25c-3.93,0-6.3,2.43-7.16,6.25Z"/><path class="cls-2" d="M154.25,330.37c8.08,1.83,10.13,6.62,10.13,11.15,0,7-5.28,12.22-15.94,12.22-11.2,0-16.21-5.6-16.21-9.8a3.56,3.56,0,0,1,3.72-3.67c4.79,0,3.55,7,12.49,7,4.57,0,7.11-2.53,7.11-5.11,0-1.56-.76-3.28-3.77-4l-10-2.53c-8-2-9.49-6.46-9.49-10.61,0-8.62,8-11.85,15.46-11.85,6.89,0,15,3.88,15,9.05,0,2.21-1.89,3.5-4,3.5-4.1,0-3.34-5.76-11.58-5.76-4.09,0-6.35,1.89-6.35,4.57s3.23,3.56,6,4.21Z"/><path class="cls-2" d="M169.87,327.67c0-2.42,1.13-3.71,3.55-3.71s3.56,1.29,3.56,3.71v1.24h.1c1.29-3.34,4.47-5,8.3-5,6.57,0,12.32,4.79,12.32,15,0,7.54-3.81,14.59-12.11,14.59-3.6,0-6.3-1.45-7.76-4h-.1V360a3.93,3.93,0,1,1-7.86,0Zm13.73,2.43c-4.58,0-6.3,4.09-6.3,8.56,0,4,1.51,8.78,6.3,8.72,5,0,6.25-5.06,6.25-8.72C189.85,334,187.8,330.2,183.6,330.1Z"/><path class="cls-2" d="M209.44,340.22c0,4.15,2.7,7.16,7.27,7.16,5.93,0,5.93-3.87,9.1-3.87a3.24,3.24,0,0,1,3.23,3.07c0,4.73-7.59,6.94-12.33,6.94-11,0-15.13-7.43-15.13-14.27,0-9.15,5.55-15.29,14.87-15.29,9,0,14.21,6.41,14.21,12.87,0,2.7-.8,3.39-3.45,3.39Zm13.79-4.52a6.72,6.72,0,0,0-6.62-6.25c-3.94,0-6.3,2.43-7.17,6.25Z"/><path class="cls-2" d="M236.15,317.28a3.93,3.93,0,1,1,7.86,0V349.6a3.93,3.93,0,0,1-7.86,0Z"/><path class="cls-2" d="M257.37,340.22c0,4.15,2.69,7.16,7.27,7.16,5.92,0,5.92-3.87,9.1-3.87a3.25,3.25,0,0,1,3.23,3.07c0,4.73-7.6,6.94-12.33,6.94-11,0-15.14-7.43-15.14-14.27,0-9.15,5.55-15.29,14.86-15.29,9.06,0,14.22,6.41,14.22,12.87,0,2.7-.81,3.39-3.44,3.39Zm13.78-4.52a6.73,6.73,0,0,0-6.63-6.25c-3.92,0-6.3,2.43-7.15,6.25Z"/><path class="cls-2" d="M284.07,327.62a3.56,3.56,0,1,1,7.11,0v3h.11c.91-3.29,2.69-6.68,6.52-6.68,2.47,0,4.3,1.61,4.3,3.82a3.59,3.59,0,0,1-3.88,3.93h-1.39c-3.18,0-4.9,2.21-4.9,8.72v9.17c0,2.09-.87,3.92-3.94,3.92s-3.93-1.83-3.93-3.92Z"/><path class="cls-2" d="M309.91,313.13a4.1,4.1,0,1,1-4.08,4.1A4.09,4.09,0,0,1,309.91,313.13ZM306,327.89c0-2.1.86-3.93,3.92-3.93s3.94,1.83,3.94,3.93V349.6c0,2.09-.86,3.92-3.94,3.92S306,351.69,306,349.6Z"/><path class="cls-2" d="M321,327.89c0-2.1.87-3.93,3.93-3.93s3.94,1.83,3.94,3.93v27.73c0,5.66-2.15,8.35-8,8.35-3,0-4.31-1.13-4.31-3.39,0-2,.82-2.75,2.48-2.75h.86c.76,0,1.13-.64,1.13-1.39Zm3.93-14.76a4.1,4.1,0,1,1-4.09,4.1A4.09,4.09,0,0,1,324.88,313.13Z"/><path class="cls-3" d="M402.37,319.22c0-3.94,2.05-5.17,5.17-5.17h10.77c9.64,0,18.47,4.2,18.47,19.38,0,12.28-6.84,19.39-18.63,19.39H407.54c-3.12,0-5.17-1.23-5.17-5.17Zm8.84,26.49h7.42c7.06,0,9.32-6.3,9.32-12.28,0-7.64-2.91-12.27-9.37-12.27h-7.37Z"/><path class="cls-3" d="M449,340.22c0,4.15,2.69,7.16,7.27,7.16,5.92,0,5.92-3.87,9.1-3.87a3.25,3.25,0,0,1,3.23,3.07c0,4.73-7.6,6.94-12.33,6.94-11,0-15.14-7.43-15.14-14.27,0-9.15,5.55-15.29,14.87-15.29,9,0,14.21,6.41,14.21,12.87,0,2.7-.8,3.39-3.44,3.39Zm13.79-4.52a6.74,6.74,0,0,0-6.63-6.25c-3.93,0-6.3,2.43-7.16,6.25Z"/><path class="cls-3" d="M492.67,317.76a4.42,4.42,0,0,1,8.83,0V339c0,5.28,3,7.65,8,7.65s8-2.37,8-7.65V317.76a4.42,4.42,0,0,1,8.83,0v20.52c0,10.66-6.57,15.46-16.86,15.46s-16.85-4.8-16.85-15.46Z"/><path class="cls-3" d="M538,313.13a4.1,4.1,0,1,1-4.1,4.1A4.09,4.09,0,0,1,538,313.13ZM534,327.89c0-2.1.86-3.93,3.94-3.93s3.92,1.83,3.92,3.93V349.6c0,2.09-.86,3.92-3.92,3.92S534,351.69,534,349.6Z"/><path class="cls-3" d="M550.61,329.82h-1.35c-2.21,0-3.12-.85-3.12-2.58s.91-2.58,3.12-2.58h1.35v-4.8a3.93,3.93,0,0,1,7.86,0v4.8h2.37c2.31,0,3.56.69,3.56,2.58s-1.25,2.58-3.56,2.58h-2.37v15.73c0,1.19.64,1.83,2,1.83h1.13A2.48,2.48,0,0,1,564.4,350c0,2.26-1.95,3.5-5.72,3.5-5.7,0-8.07-2.37-8.07-7Z"/><path class="cls-3" d="M566.22,330a8.55,8.55,0,0,1-.49-2,3.77,3.77,0,0,1,3.83-4.09,4,4,0,0,1,3.93,3.28L578.76,345h.12l5.28-17.78a4,4,0,0,1,3.93-3.28,3.77,3.77,0,0,1,3.82,4.09,8.08,8.08,0,0,1-.49,2L584,350.72c-.76,2.1-1.25,2.8-5.18,2.8s-4.41-.7-5.17-2.8Z"/><path class="cls-3" d="M599.77,313.13a4.1,4.1,0,1,1-4.09,4.1A4.09,4.09,0,0,1,599.77,313.13Zm-3.93,14.76c0-2.1.86-3.93,3.93-3.93s3.92,1.83,3.92,3.93V349.6c0,2.09-.85,3.92-3.92,3.92s-3.93-1.83-3.93-3.92Z"/><path class="cls-3" d="M610.37,327.89c0-2.38,1.08-3.93,3.56-3.93s3.56,1.55,3.56,3.93v1h.1a11.28,11.28,0,0,1,9.53-5c4.74,0,9.92,2.36,9.92,10.34v15.3c0,2.09-.87,3.92-3.94,3.92s-3.93-1.83-3.93-3.92V335.86c0-3.18-1.56-5.44-5-5.44a6.1,6.1,0,0,0-6,6.19v13c0,2.09-.87,3.92-3.93,3.92s-3.94-1.83-3.94-3.92Z"/><path class="cls-3" d="M669.93,349.81c0,2.42-1.13,3.71-3.56,3.71s-3.55-1.29-3.55-3.71v-1.24h-.11c-1.29,3.34-4.47,4.95-8.29,4.95-6.57,0-12.34-4.79-12.34-15,0-7.55,3.83-14.6,12.12-14.6a8.61,8.61,0,0,1,7.75,4h.12V317.28a3.93,3.93,0,0,1,7.86,0Zm-13.74-2.43c4.59,0,6.31-4.09,6.31-8.56,0-4-1.51-8.78-6.31-8.72-5,0-6.24,5.06-6.24,8.72C650,343.45,652,347.27,656.19,347.38Z"/><path class="cls-3" d="M682.85,340.22c0,4.15,2.69,7.16,7.27,7.16,5.92,0,5.92-3.87,9.1-3.87a3.24,3.24,0,0,1,3.23,3.07c0,4.73-7.59,6.94-12.33,6.94-11,0-15.13-7.43-15.13-14.27,0-9.15,5.55-15.29,14.86-15.29,9,0,14.22,6.41,14.22,12.87,0,2.7-.81,3.39-3.45,3.39Zm13.78-4.52a6.72,6.72,0,0,0-6.62-6.25c-3.93,0-6.3,2.43-7.16,6.25Z"/><path class="cls-3" d="M709.56,327.62a3.55,3.55,0,1,1,7.1,0v3h.11c.92-3.29,2.7-6.68,6.52-6.68,2.48,0,4.31,1.61,4.31,3.82a3.59,3.59,0,0,1-3.88,3.93h-1.4c-3.18,0-4.9,2.21-4.9,8.72v9.17c0,2.09-.86,3.92-3.93,3.92s-3.93-1.83-3.93-3.92Z"/><path class="cls-3" d="M735.4,313.13a4.1,4.1,0,1,1-4.09,4.1A4.09,4.09,0,0,1,735.4,313.13Zm-3.93,14.76c0-2.1.87-3.93,3.93-3.93s3.94,1.83,3.94,3.93V349.6c0,2.09-.86,3.92-3.94,3.92s-3.93-1.83-3.93-3.92Z"/><path class="cls-3" d="M746.44,327.89c0-2.1.86-3.93,3.93-3.93s3.93,1.83,3.93,3.93v27.73c0,5.66-2.15,8.35-8,8.35-3,0-4.31-1.13-4.31-3.39,0-2,.81-2.75,2.48-2.75h.86c.76,0,1.13-.64,1.13-1.39Zm3.93-14.76a4.1,4.1,0,1,1-4.09,4.1A4.09,4.09,0,0,1,750.37,313.13Z"/></g></g></svg>